<svg width="1721" height="2474" viewBox="0 0 1721 2474" fill="none" xmlns="http://www.w3.org/2000/svg">
<path d="M1153.51 87.3208V93.4408L1156.57 88.5894L1153.51 87.3208Z" fill="#EEF5F0" stroke="black" stroke-width="3.09403" stroke-miterlimit="2"/>
<path d="M1163.21 106.454L1162.95 109.511L1169.58 109.258L1163.21 106.454Z" fill="#EEF5F0" stroke="black" stroke-width="3.09403" stroke-miterlimit="2"/>
<path d="M1178.77 37.8228L1177.23 43.1754L1182.08 38.8376L1178.77 37.8228Z" fill="#EEF5F0" stroke="black" stroke-width="3.09403" stroke-miterlimit="2"/>
<path d="M1211.68 60.5203L1213.2 56.4424L1220.86 64.8643L1211.68 60.5203Z" fill="#EEF5F0" stroke="black" stroke-width="3.09403" stroke-miterlimit="2"/>
<path d="M1320.38 94.2019L1323.44 99.8207V95.2291L1320.38 94.2019Z" fill="#EEF5F0" stroke="black" stroke-width="3.09403" stroke-miterlimit="2"/>
<path d="M1460.65 2173.39L1464.87 2199.59L1459.64 2201.7L1460.65 2173.39Z" fill="#EEF5F0" stroke="black" stroke-width="3.09403" stroke-miterlimit="2"/>
<path d="M996.728 4.34527L1010.79 2L1022.53 8.86874L1032.66 43.7013L1020.19 52.544L1018.21 61.2073L1014.05 59.586L1015.86 52.0118L1005.74 29.0789L995.286 18.9738L1001.23 8.32419L996.177 9.22146L996.728 4.34527Z" fill="#EEF5F0" stroke="black" stroke-width="3.09403" stroke-miterlimit="2"/>
<path d="M984.451 80.5202L986.963 82.3271L988.782 80.3469L984.451 80.5202Z" fill="#EEF5F0" stroke="black" stroke-width="3.09403" stroke-miterlimit="2"/>
<path d="M1011.7 61.7517L1012.96 65.9039L1014.05 61.5723L1011.7 61.7517Z" fill="#EEF5F0" stroke="black" stroke-width="3.09403" stroke-miterlimit="2"/>
<path d="M1072.9 125.111L1074.53 128.539L1083 131.609L1077.77 124.573L1072.9 125.111Z" fill="#EEF5F0" stroke="black" stroke-width="3.09403" stroke-miterlimit="2"/>
<path d="M1143.48 114.103L1140.59 120.421L1148.7 115L1143.48 114.103Z" fill="#EEF5F0" stroke="black" stroke-width="3.09403" stroke-miterlimit="2"/>
<path d="M1118.37 134.672L1120.74 136.85L1117.67 137.568L1118.37 134.672Z" fill="#EEF5F0" stroke="black" stroke-width="3.09403" stroke-miterlimit="2"/>
<path d="M1143.48 114.103L1140.59 120.421L1148.7 115L1143.48 114.103Z" fill="#EEF5F0" stroke="black" stroke-width="3.09403" stroke-miterlimit="2"/>
<path d="M1153.04 120.959L1157.02 118.979V122.228L1153.04 120.959Z" fill="#EEF5F0" stroke="black" stroke-width="3.09403" stroke-miterlimit="2"/>
<path d="M1162.07 137.382L1158.11 143.341L1159.9 148.941L1164.41 139.548L1162.07 137.382Z" fill="#EEF5F0" stroke="black" stroke-width="3.09403" stroke-miterlimit="2"/>
<path d="M1167.13 142.258L1168.93 144.059L1162.61 148.044L1167.13 142.258Z" fill="#EEF5F0" stroke="black" stroke-width="3.09403" stroke-miterlimit="2"/>
<path d="M1182.12 132.692L1184.09 134.492L1186.26 132.512L1182.12 132.692Z" fill="#EEF5F0" stroke="black" stroke-width="3.09403" stroke-miterlimit="2"/>
<path d="M1128.86 192.264L1130.84 194.25L1131.93 191.175L1128.86 192.264Z" fill="#EEF5F0" stroke="black" stroke-width="3.09403" stroke-miterlimit="2"/>
<path d="M1118.75 188.65L1123.61 167.895L1131.93 157.784L1138.97 161.751L1136.43 167.71L1143.29 170.606L1140.41 175.655L1148.7 179.801L1159.18 165.185L1161.7 159.226L1170.75 158.688L1180.3 150.204L1196.91 150.563L1189.32 148.044L1195.46 144.61L1196.73 133.781L1173.8 125.297L1177.05 118.255L1210.09 115.73L1222.9 125.476L1229.22 122.401L1231.2 136.305L1242.58 145.334L1247.28 165.006H1252.14L1258.84 172.413L1265.67 170.061L1270.56 175.482L1256.3 209.225L1251.42 212.839L1244.74 209.405L1242.58 215.185L1237.34 211.397L1231.2 214.108L1220.93 209.225L1223.81 202.549L1218.93 201.645L1217.49 206.521L1211.17 207.969L1215.51 197.313L1211.35 193.347L1205.2 200.562L1191.3 205.624L1187.53 201.645L1181.21 206.701L1176.5 198.582L1172.9 203.817L1167.83 196.596L1162.07 195.154L1155.21 206.886L1148.52 205.079L1151.42 201.645L1146.73 200.748L1148.7 196.416L1143.84 191.361L1133 196.237L1137.7 192.085L1133.38 191.002L1134.99 185.754L1129.41 186.484L1129.75 176.918L1123.79 188.65H1118.75Z" fill="#EEF5F0" stroke="black" stroke-width="3.09403" stroke-miterlimit="2"/>
<path d="M916.03 179.987L921.265 190.278L918.016 197.499L914.414 197.858L935.528 210.859L930.838 205.444L933.913 201.831L940.219 206.701L947.991 203.452L938.771 193.526L931.568 192.084L938.771 189.919L932.824 182.332L931.209 185.754L924.513 184.677L916.03 179.987Z" fill="#EEF5F0" stroke="black" stroke-width="3.09403" stroke-miterlimit="2"/>
<path d="M947.632 183.056L948.529 196.416L957.372 197.134L956.116 191.719L951.233 181.973L947.632 183.056Z" fill="#EEF5F0" stroke="black" stroke-width="3.09403" stroke-miterlimit="2"/>
<path d="M967.118 190.816L968.021 194.424L970.181 192.264L967.118 190.816Z" fill="#EEF5F0" stroke="black" stroke-width="3.09403" stroke-miterlimit="2"/>
<path d="M974.705 188.112L976.505 190.816L977.588 186.664L974.705 188.112Z" fill="#EEF5F0" stroke="black" stroke-width="3.09403" stroke-miterlimit="2"/>
<path d="M973.987 197.499L977.223 195.878L981.74 197.314L979.395 199.492L973.987 197.499Z" fill="#EEF5F0" stroke="black" stroke-width="3.09403" stroke-miterlimit="2"/>
<path d="M961.159 197.134L962.428 194.25L968.387 200.383L961.159 197.134Z" fill="#EEF5F0" stroke="black" stroke-width="3.09403" stroke-miterlimit="2"/>
<path d="M913.69 215.005L915.671 219.702L916.568 215.358L913.69 215.005Z" fill="#EEF5F0" stroke="black" stroke-width="3.09403" stroke-miterlimit="2"/>
<path d="M840.393 189.015L841.668 197.678L849.966 195.327L850.677 191.175L840.393 189.015Z" fill="#EEF5F0" stroke="black" stroke-width="3.09403" stroke-miterlimit="2"/>
<path d="M857.367 192.443L860.442 198.217L865.851 197.134L862.045 191.001L857.367 192.443Z" fill="#EEF5F0" stroke="black" stroke-width="3.09403" stroke-miterlimit="2"/>
<path d="M836.433 237.394L834.805 253.637L844.737 259.411L852.317 256.341L853.029 251.651L843.994 238.656L836.433 237.394Z" fill="#EEF5F0" stroke="black" stroke-width="3.09403" stroke-miterlimit="2"/>
<path d="M847.825 263.383L850.678 269.522L857.367 270.425L847.825 263.383Z" fill="#EEF5F0" stroke="black" stroke-width="3.09403" stroke-miterlimit="2"/>
<path d="M857.175 276.564L862.416 272.771L879.223 278.73L888.412 276.564L916.747 289.2L920.912 286.31L918.938 275.66L929.031 291.18L944.915 296.595L929.569 322.591L922.341 324.577L898.882 318.618L889.316 313.389L874.495 289.373L858.276 280.171L857.175 276.564Z" fill="#EEF5F0" stroke="black" stroke-width="3.09403" stroke-miterlimit="2"/>
<path d="M754.125 248.223L756.452 252.554L751.217 249.671L754.125 248.223Z" fill="#EEF5F0" stroke="black" stroke-width="3.09403" stroke-miterlimit="2"/>
<path d="M696.521 298.76L698.878 304.534L695.444 303.098L696.521 298.76Z" fill="#EEF5F0" stroke="black" stroke-width="3.09403" stroke-miterlimit="2"/>
<path d="M590.037 279.992L590.204 287.393L597.246 287.028L597.431 279.812L590.037 279.992Z" fill="#EEF5F0" stroke="black" stroke-width="3.09403" stroke-miterlimit="2"/>
<path d="M541.826 300.394L540.928 305.809L534.802 305.623L535.687 299.664L541.826 300.394Z" fill="#EEF5F0" stroke="black" stroke-width="3.09403" stroke-miterlimit="2"/>
<path d="M558.806 298.581L567.828 286.31L563.688 283.593L565.099 277.64L571.25 276.564L574.697 283.779L572.153 295.877L564.95 300.926L558.806 298.581Z" fill="#EEF5F0" stroke="black" stroke-width="3.09403" stroke-miterlimit="2"/>
<path d="M505.359 284.862L511.331 283.055L510.062 270.97L522.531 274.757L530.279 286.124L534.61 285.406L535.687 289.2L531.727 292.083L535.52 297.498L529.016 295.877L527.389 298.222L525.415 295.877L521.071 299.664L516.213 296.415L520.898 291.545L518.008 286.489L505.359 284.862Z" fill="#EEF5F0" stroke="black" stroke-width="3.09403" stroke-miterlimit="2"/>
<path d="M447.959 296.415L451.4 299.664L451.226 294.435L447.959 296.415Z" fill="#EEF5F0" stroke="black" stroke-width="3.09403" stroke-miterlimit="2"/>
<path d="M445.793 314.472L443.826 318.259L449.048 327.825L444.896 339.379H454.104L461.319 328.915L460.793 317.355L465.484 315.375L445.793 314.472Z" fill="#EEF5F0" stroke="black" stroke-width="3.09403" stroke-miterlimit="2"/>
<path d="M493.986 306.167L519.827 312.485L510.793 317.355L519.091 323.859L521.071 339.379L516.752 352.188L524.499 374.762L521.981 387.392L496.882 407.255L474.506 402.02L472.154 397.868L473.064 379.087L480.292 369.521L479.382 346.6L492.024 333.061L493.986 306.167Z" fill="#EEF5F0" stroke="black" stroke-width="3.09403" stroke-miterlimit="2"/>
<path d="M376.295 474.402L391.475 509.593L395.633 504.371L392.533 485.045L388.944 479.092L376.295 474.402Z" fill="#EEF5F0" stroke="black" stroke-width="3.09403" stroke-miterlimit="2"/>
<path d="M410.422 449.136L409.519 454.365L416.561 465.374L417.279 453.276L410.422 449.136Z" fill="#EEF5F0" stroke="black" stroke-width="3.09403" stroke-miterlimit="2"/>
<path d="M312.589 626.572L306.989 637.222L309.334 657.612L329.019 681.089L344.346 677.469L336.964 665.557L340.398 637.575L331.172 628.194L312.589 626.572Z" fill="#EEF5F0" stroke="black" stroke-width="3.09403" stroke-miterlimit="2"/>
<path d="M286.049 684.152L298.846 689.573L301.754 693.539L293.444 696.602L295.442 706.175L289.489 709.981L280.64 712.134L272.707 708.712L278.116 688.855L286.049 684.152Z" fill="#EEF5F0" stroke="black" stroke-width="3.09403" stroke-miterlimit="2"/>
<path d="M1264.43 533.968L1263.71 538.838L1268.75 544.438L1264.43 533.968Z" fill="#EEF5F0" stroke="black" stroke-width="3.09403" stroke-miterlimit="2"/>
<path d="M1329.21 594.989L1333.55 597.328L1333.74 593.899L1329.21 594.989Z" fill="#EEF5F0" stroke="black" stroke-width="3.09403" stroke-miterlimit="2"/>
<path d="M1347.09 657.977L1344.73 662.847L1349.09 665.39L1351.41 659.245L1347.09 657.977Z" fill="#EEF5F0" stroke="black" stroke-width="3.09403" stroke-miterlimit="2"/>
<path d="M1380.68 668.633L1384.64 676.937L1388.61 673.682L1380.68 668.633Z" fill="#EEF5F0" stroke="black" stroke-width="3.09403" stroke-miterlimit="2"/>
<path d="M1334.45 741.552L1333.92 750.036L1342.06 749.684V741.552H1334.45Z" fill="#EEF5F0" stroke="black" stroke-width="3.09403" stroke-miterlimit="2"/>
<path d="M1306.48 1211.78L1308.28 1219.91L1311.35 1215.04L1306.48 1211.78Z" fill="#EEF5F0" stroke="black" stroke-width="3.09403" stroke-miterlimit="2"/>
<path d="M1289.69 1354.75L1291.85 1358.54L1292.75 1355.64L1289.69 1354.75Z" fill="#EEF5F0" stroke="black" stroke-width="3.09403" stroke-miterlimit="2"/>
<path d="M1302.32 1332.37L1306.29 1320.63L1311.35 1325.87V1321.17L1310.27 1314.13L1322.72 1324.44L1319.84 1330.39L1302.32 1332.37Z" fill="#EEF5F0" stroke="black" stroke-width="3.09403" stroke-miterlimit="2"/>
<path d="M1307.38 1307.82L1310.27 1314.13L1313.7 1310.53L1312.62 1306.56L1307.38 1307.82Z" fill="#EEF5F0" stroke="black" stroke-width="3.09403" stroke-miterlimit="2"/>
<path d="M1313.7 1292.12L1314.78 1296.61L1319.66 1297.71L1313.7 1292.12Z" fill="#EEF5F0" stroke="black" stroke-width="3.09403" stroke-miterlimit="2"/>
<path d="M1637.35 1956.39L1636.44 1960.91L1639.88 1957.29L1637.35 1956.39Z" fill="#EEF5F0" stroke="black" stroke-width="3.09403" stroke-miterlimit="2"/>
<path d="M1649.99 1961.09L1642.77 1971.37L1650.89 1969.94L1653.24 1961.44L1649.99 1961.09Z" fill="#EEF5F0" stroke="black" stroke-width="3.09403" stroke-miterlimit="2"/>
<path d="M1627.61 1985.81L1638.81 1975.17L1651.26 1972.64L1655.78 1962.7L1668.06 1961.44L1673.63 1967.23L1683.57 1961.27L1656.31 1995.74L1641.32 1992.49L1649.99 1991.23V1987.81L1657.57 1989.26L1653.96 1985.46L1649.09 1987.07L1639.34 1977.15L1631.21 1986.35L1627.61 1985.81Z" fill="#EEF5F0" stroke="black" stroke-width="3.09403" stroke-miterlimit="2"/>
<path d="M1501.08 2115.42L1511.53 2106.75L1515.87 2108.56L1511.9 2111.44L1501.08 2115.42Z" fill="#EEF5F0" stroke="black" stroke-width="3.09403" stroke-miterlimit="2"/>
<path d="M1440.96 2205.14L1448.72 2191.23V2243.4L1446.36 2248.65L1439.51 2249.18L1437 2229.33L1440.96 2205.14Z" fill="#EEF5F0" stroke="black" stroke-width="3.09403" stroke-miterlimit="2"/>
<path d="M1440.96 2250.99L1440.23 2253.33L1444.4 2253.87L1440.96 2250.99Z" fill="#EEF5F0" stroke="black" stroke-width="3.09403" stroke-miterlimit="2"/>
<path d="M1433.02 2260.01L1433.73 2264.17L1435.91 2260.92L1433.02 2260.01Z" fill="#EEF5F0" stroke="black" stroke-width="3.09403" stroke-miterlimit="2"/>
<path d="M0 2436.2L48.1368 2402.26L86.6513 2361.33L135.271 2248.7L184.837 2178.67L199.527 2148.34L226.483 2067.24L238.995 1993.83L236.835 1978.18L246.47 1940.16L247.442 1916.81L239.96 1782.03L227.931 1722.81L198.321 1655.91L203.141 1653.5L204.348 1659.04L213.741 1660.72L234.669 1647.24L235.641 1635.94L227.683 1637.37L219.02 1645.8L201.947 1642.67L202.652 1649.9L195.938 1651.1L162.461 1569.51L141.044 1488.16L123.73 1452.53L122.276 1429.91L127.573 1411.61L154.751 1375.52L166.087 1341.11L154.039 1266.22L160.766 1278.03L165.605 1278.26L168.222 1276.12L161.978 1273.7L161.508 1268.42L154.287 1264.09L132.133 1217.4L132.381 1209.44L160.301 1184.41L171.359 1169.98L228.648 1058.3L235.641 1019.79L237.312 987.051L245.486 982.001L237.07 982.713L245.016 953.351L246.47 931.946L233.698 893.191L234.669 873.463L272.219 853.971L287.132 855.641L298.92 845.53L305.17 805.834L303.747 761.775L316.024 753.118L324.935 762.487L340.33 761.292L354.786 727.122L368.505 728.087L378.851 742.283L384.866 743.236L406.276 735.29L413.486 722.301L413.25 703.539L426.01 681.392L438.529 674.653L450.806 660.934L452.235 647.463L464.506 626.034L473.664 611.108L486.659 613.757L501.343 597.631L508.571 612.804L497.259 626.034L497.024 637.828L491.733 627.958L486.43 628.435L476.307 642.166L481.597 662.624L493.621 678.731L493.862 686.448L485.7 682.586L480.644 698.236L464.754 720.847L468.602 728.087L481.826 718.217L480.644 750.222L473.194 753.341L464.754 771.651L463.089 794.751L470.044 816.657L466.926 831.106L476.065 835.19L484.005 834.466L489.543 808.235L509.536 767.555L504.239 764.182L498.225 769.238L496.535 764.906L508.8 748.068L513.385 723.743L529.258 716.058L532.383 731.701L524.437 733.378L521.566 786.082L498.942 809.658L497.024 826.292L491.473 835.673L495.564 841.446L507.117 844.819L518.2 833.259L518.918 815.444L534.567 802.201L560.303 744.207L569.944 652.265L563.688 631.331L560.303 585.849L566.089 567.551L592.797 539.624L605.563 541.319L612.53 529.76L630.835 517.007L654.888 510.75L690.772 517.007L701.595 511.474L709.045 512.669L737.467 498.95L736.725 490.045L731.669 484.754L712.436 481.623L713.142 486.438L688.353 475.367L670.302 453.214L662.35 426.506L660.921 402.441L676.812 375.727L702.789 361.526L708.092 348.048L726.601 330.957L728.067 325.907L720.357 314.354L700.388 306.167L730.475 305.932L740.827 312.188L748.525 306.885L764.397 312.188L771.885 309.298L776.693 311.941L786.538 303.525L782.219 294.379L784.15 291.489L804.836 290.524L809.168 300.629L871.506 331.433L905.689 361.284L919.885 363.45L923.746 360.084L916.271 355.505L922.304 352.138L937.7 358.153L958.145 354.31L997.39 367.54L1027.47 400.034L1033.5 426.995L1040.23 439.266L1054.67 444.798L1066.23 439.99L1110.03 444.798L1152.62 481.382L1165.14 480.175L1160.09 484.03L1165.85 486.679L1172.37 484.03L1178.14 487.403L1177.89 483.789L1187.77 482.824L1196.68 493.9L1220.23 508.343L1228.44 508.826L1232.05 514.599L1250.09 514.835L1254.2 510.026L1269.61 518.201L1271.06 509.544L1276.84 517.007L1273.21 520.379L1275.14 526.394L1281.4 524.222L1282.34 530.237L1286.68 530.484L1297.51 545.156L1313.17 555.509L1309.8 564.661L1299.92 560.564L1300.41 565.143L1303.29 567.068L1305.47 578.132L1317 594.264L1323.75 611.356L1332.16 622.42L1340.12 623.633L1338.91 636.634L1345.65 647.933L1337.48 652.5L1340.83 652.748L1342.28 669.127L1356.72 675.136L1361.54 683.799L1350.46 684.047L1329.53 675.613L1323.02 668.156L1322.07 659.245H1313.17L1295.36 670.309L1289.34 689.096L1298.73 695.365L1288.61 694.864L1286.94 704.022L1292.46 708.106L1297.75 731.701L1311.96 749.739L1328.08 759.609L1343.49 762.734L1341.56 777.431L1353.59 802.944L1352.39 832.77L1362.99 852.51L1348.3 910.282L1351.68 940.597L1342.52 1056.62L1330 1054.69L1312.93 1076.09L1302.81 1097.53L1297.51 1098.26L1303.78 1090.31L1295.36 1084.3L1279.71 1086.21L1271.75 1093.66L1262.62 1117.02L1257.33 1149.98L1259.49 1176.23L1249.14 1189.7L1255.16 1206.79L1243.85 1202.95L1221.94 1209.92L1217.62 1213.3L1218.59 1218.82L1213.76 1221.73L1216.89 1240.73L1194.03 1231.58L1190.41 1241.21L1179.34 1242.41L1173.08 1238.08L1168.99 1242.17L1167.8 1235.92L1156.96 1236.16L1150.71 1241.68L1146.62 1253.72L1142.04 1257.34L1136.01 1275.87L1129.29 1281.17L1128.34 1310.29L1133.62 1315.11L1125.9 1314.87L1124.47 1352.89L1122.07 1356.49L1121.81 1351.93L1119.17 1360.83L1117.25 1358.43L1118.68 1366.86L1114.84 1367.08L1118.68 1382.97L1137.46 1415.94L1165.14 1429.42L1193.79 1434.95L1222.68 1454.21L1268.63 1401.27L1279.22 1380.81L1282.34 1382.01L1284.05 1393.56L1292.71 1392.11L1299.68 1378.63V1372.63L1326.64 1329.54L1330.25 1319.19L1329.77 1312.7L1341.09 1307.16L1352.39 1292.96L1351.19 1284.28L1323.52 1279L1323.75 1277.32L1349.5 1274.92L1362.73 1270.82L1372.12 1260.46L1375.73 1242.17L1408.72 1237.36L1431.57 1226.05L1450.11 1227.01L1459.51 1216.92L1463.83 1203.67L1477.08 1200.53L1490.54 1190.67L1494.4 1193.56L1504.97 1189.46L1523.76 1201.97L1553.6 1211.38L1559.13 1220.76L1566.85 1221.49L1576.7 1231.34L1598.84 1278.76L1610.65 1295.36L1627.02 1342.07L1630.86 1403.43L1642.65 1468.4L1662.17 1522.33L1675.38 1643.62L1689.81 1700.19L1716.06 1751.93L1716.53 1769.03L1703.31 1788.53L1696.81 1812.83L1698.97 1834.02L1695.37 1854.46L1701.14 1883.59L1695.12 1893.46L1685.74 1953.39L1675.15 1965.19L1669.85 1960.13L1633.75 1953.62L1642.65 1943.28L1643.61 1933.17L1631.6 1934.39L1617.38 1922.59L1594.75 1932.93L1590.92 1940.64L1574.78 1944.71L1568.27 1955.32L1568.52 1963.74L1586.09 1976.01L1582.01 1978.9L1582.23 1991.19L1577.17 1988.54L1562.5 1991.88L1547.11 2016.69L1545.9 2042.7L1550.94 2052.3L1542.28 2087.21L1529.05 2103.34L1505.95 2106.96L1487.9 2120.66L1471.54 2128.83L1457.08 2150.27L1459.03 2154.12L1452.99 2164.69L1445.04 2169.28L1448.18 2180.12L1431.57 2233.78L1433.25 2251.1L1431.33 2254.23L1427.71 2253.04L1432.78 2272.04L1431.57 2281.68L1425.31 2280.24L1425.57 2299L1410.88 2311.77L1403.66 2309.36L1409.91 2315.63L1407.99 2328.85L1404.63 2332.7L1391.63 2328.6L1385.13 2332.95L1379.58 2341.61L1376.45 2360.64L1374.05 2357.5L1366.6 2356.54L1368.99 2364.47L1358.88 2370.48L1347.34 2393.35L1337 2400.81L1343.96 2440.54H1340.6L1333.37 2411.66L1329.29 2415.74L1334.58 2427.77L1324.48 2428.99L1327.13 2436.43L1320.36 2443.17L798.11 2471.81L796.903 2437.89L0 2436.2Z" fill="#EEF5F0"/>
<path d="M393.628 332.887L390.943 342.269L394.884 339.379L393.628 332.887Z" fill="#EEF5F0" stroke="black" stroke-width="3.09403" stroke-miterlimit="2"/>
<path d="M996.728 4.34527L1010.79 2L1022.53 8.86874L1032.66 43.7013L1020.19 52.544L1018.21 61.2073L1014.05 59.586L1015.86 52.0118L1005.74 29.0789L995.286 18.9738L1001.23 8.32419L996.177 9.22146L996.728 4.34527Z" fill="#EEF5F0" stroke="black" stroke-width="3.09403" stroke-miterlimit="2"/>
<path d="M984.451 80.5202L986.963 82.3271L988.782 80.3469L984.451 80.5202Z" fill="#EEF5F0" stroke="black" stroke-width="3.09403" stroke-miterlimit="2"/>
<path d="M1011.7 61.7517L1012.96 65.9039L1014.05 61.5723L1011.7 61.7517Z" fill="#EEF5F0" stroke="black" stroke-width="3.09403" stroke-miterlimit="2"/>
<path d="M1072.9 125.111L1074.53 128.539L1083 131.609L1077.77 124.573L1072.9 125.111Z" fill="#EEF5F0" stroke="black" stroke-width="3.09403" stroke-miterlimit="2"/>
<path d="M1143.48 114.103L1140.59 120.421L1148.7 115L1143.48 114.103Z" fill="#EEF5F0" stroke="black" stroke-width="3.09403" stroke-miterlimit="2"/>
<path d="M1118.37 134.672L1120.74 136.85L1117.67 137.568L1118.37 134.672Z" fill="#EEF5F0" stroke="black" stroke-width="3.09403" stroke-miterlimit="2"/>
<path d="M1143.48 114.103L1140.59 120.421L1148.7 115L1143.48 114.103Z" fill="#EEF5F0" stroke="black" stroke-width="3.09403" stroke-miterlimit="2"/>
<path d="M1153.04 120.959L1157.02 118.979V122.228L1153.04 120.959Z" fill="#EEF5F0" stroke="black" stroke-width="3.09403" stroke-miterlimit="2"/>
<path d="M1162.07 137.382L1158.11 143.341L1159.9 148.941L1164.41 139.548L1162.07 137.382Z" fill="#EEF5F0" stroke="black" stroke-width="3.09403" stroke-miterlimit="2"/>
<path d="M1167.13 142.258L1168.93 144.059L1162.61 148.044L1167.13 142.258Z" fill="#EEF5F0" stroke="black" stroke-width="3.09403" stroke-miterlimit="2"/>
<path d="M1182.12 132.692L1184.09 134.492L1186.26 132.512L1182.12 132.692Z" fill="#EEF5F0" stroke="black" stroke-width="3.09403" stroke-miterlimit="2"/>
<path d="M1128.86 192.264L1130.84 194.25L1131.93 191.175L1128.86 192.264Z" fill="#EEF5F0" stroke="black" stroke-width="3.09403" stroke-miterlimit="2"/>
<path d="M1118.75 188.65L1123.61 167.895L1131.93 157.784L1138.97 161.751L1136.43 167.71L1143.29 170.606L1140.41 175.655L1148.7 179.801L1159.18 165.185L1161.7 159.226L1170.75 158.688L1180.3 150.204L1196.91 150.563L1189.32 148.044L1195.46 144.61L1196.73 133.781L1173.8 125.297L1177.05 118.255L1210.09 115.73L1222.9 125.476L1229.22 122.401L1231.2 136.305L1242.58 145.334L1247.28 165.006H1252.14L1258.84 172.413L1265.67 170.061L1270.56 175.482L1256.3 209.225L1251.42 212.839L1244.74 209.405L1242.58 215.185L1237.34 211.397L1231.2 214.108L1220.93 209.225L1223.81 202.549L1218.93 201.645L1217.49 206.521L1211.17 207.969L1215.51 197.313L1211.35 193.347L1205.2 200.562L1191.3 205.624L1187.53 201.645L1181.21 206.701L1176.5 198.582L1172.9 203.817L1167.83 196.596L1162.07 195.154L1155.21 206.886L1148.52 205.079L1151.42 201.645L1146.73 200.748L1148.7 196.416L1143.84 191.361L1133 196.237L1137.7 192.085L1133.38 191.002L1134.99 185.754L1129.41 186.484L1129.75 176.918L1123.79 188.65H1118.75Z" fill="#EEF5F0" stroke="black" stroke-width="3.09403" stroke-miterlimit="2"/>
<path d="M916.03 179.987L921.265 190.278L918.016 197.499L914.414 197.858L935.528 210.859L930.838 205.444L933.913 201.831L940.219 206.701L947.991 203.452L938.771 193.526L931.568 192.084L938.771 189.919L932.824 182.332L931.209 185.754L924.513 184.677L916.03 179.987Z" fill="#EEF5F0" stroke="black" stroke-width="3.09403" stroke-miterlimit="2"/>
<path d="M947.632 183.056L948.529 196.416L957.372 197.134L956.116 191.719L951.233 181.973L947.632 183.056Z" fill="#EEF5F0" stroke="black" stroke-width="3.09403" stroke-miterlimit="2"/>
<path d="M967.118 190.816L968.021 194.424L970.181 192.264L967.118 190.816Z" fill="#EEF5F0" stroke="black" stroke-width="3.09403" stroke-miterlimit="2"/>
<path d="M974.705 188.112L976.505 190.816L977.588 186.664L974.705 188.112Z" fill="#EEF5F0" stroke="black" stroke-width="3.09403" stroke-miterlimit="2"/>
<path d="M973.987 197.499L977.223 195.878L981.74 197.314L979.395 199.492L973.987 197.499Z" fill="#EEF5F0" stroke="black" stroke-width="3.09403" stroke-miterlimit="2"/>
<path d="M961.159 197.134L962.428 194.25L968.387 200.383L961.159 197.134Z" fill="#EEF5F0" stroke="black" stroke-width="3.09403" stroke-miterlimit="2"/>
<path d="M913.69 215.005L915.671 219.702L916.568 215.358L913.69 215.005Z" fill="#EEF5F0" stroke="black" stroke-width="3.09403" stroke-miterlimit="2"/>
<path d="M840.393 189.015L841.668 197.678L849.966 195.327L850.677 191.175L840.393 189.015Z" fill="#EEF5F0" stroke="black" stroke-width="3.09403" stroke-miterlimit="2"/>
<path d="M857.367 192.443L860.442 198.217L865.851 197.134L862.045 191.001L857.367 192.443Z" fill="#EEF5F0" stroke="black" stroke-width="3.09403" stroke-miterlimit="2"/>
<path d="M836.433 237.394L834.805 253.637L844.737 259.411L852.317 256.341L853.029 251.651L843.994 238.656L836.433 237.394Z" fill="#EEF5F0" stroke="black" stroke-width="3.09403" stroke-miterlimit="2"/>
<path d="M847.825 263.383L850.678 269.522L857.367 270.425L847.825 263.383Z" fill="#EEF5F0" stroke="black" stroke-width="3.09403" stroke-miterlimit="2"/>
<path d="M857.175 276.564L862.416 272.771L879.223 278.73L888.412 276.564L916.747 289.2L920.912 286.31L918.938 275.66L929.031 291.18L944.915 296.595L929.569 322.591L922.341 324.577L898.882 318.618L889.316 313.389L874.495 289.373L858.276 280.171L857.175 276.564Z" fill="#EEF5F0" stroke="black" stroke-width="3.09403" stroke-miterlimit="2"/>
<path d="M754.125 248.223L756.452 252.554L751.217 249.671L754.125 248.223Z" fill="#EEF5F0" stroke="black" stroke-width="3.09403" stroke-miterlimit="2"/>
<path d="M696.521 298.76L698.878 304.534L695.444 303.098L696.521 298.76Z" fill="#EEF5F0" stroke="black" stroke-width="3.09403" stroke-miterlimit="2"/>
<path d="M590.037 279.992L590.204 287.393L597.246 287.028L597.431 279.812L590.037 279.992Z" fill="#EEF5F0" stroke="black" stroke-width="3.09403" stroke-miterlimit="2"/>
<path d="M541.826 300.394L540.928 305.809L534.802 305.623L535.687 299.664L541.826 300.394Z" fill="#EEF5F0" stroke="black" stroke-width="3.09403" stroke-miterlimit="2"/>
<path d="M558.806 298.581L567.828 286.31L563.688 283.593L565.099 277.64L571.25 276.564L574.697 283.779L572.153 295.877L564.95 300.926L558.806 298.581Z" fill="#EEF5F0" stroke="black" stroke-width="3.09403" stroke-miterlimit="2"/>
<path d="M505.359 284.862L511.331 283.055L510.062 270.97L522.531 274.757L530.279 286.124L534.61 285.406L535.687 289.2L531.727 292.083L535.52 297.498L529.016 295.877L527.389 298.222L525.415 295.877L521.071 299.664L516.213 296.415L520.898 291.545L518.008 286.489L505.359 284.862Z" fill="#EEF5F0" stroke="black" stroke-width="3.09403" stroke-miterlimit="2"/>
<path d="M447.959 296.415L451.4 299.664L451.226 294.435L447.959 296.415Z" fill="#EEF5F0" stroke="black" stroke-width="3.09403" stroke-miterlimit="2"/>
<path d="M445.793 314.472L443.826 318.259L449.048 327.825L444.896 339.379H454.104L461.319 328.915L460.793 317.355L465.484 315.375L445.793 314.472Z" fill="#EEF5F0" stroke="black" stroke-width="3.09403" stroke-miterlimit="2"/>
<path d="M493.986 306.167L519.827 312.485L510.793 317.355L519.091 323.859L521.071 339.379L516.752 352.188L524.499 374.762L521.981 387.392L496.882 407.255L474.506 402.02L472.154 397.868L473.064 379.087L480.292 369.521L479.382 346.6L492.024 333.061L493.986 306.167Z" fill="#EEF5F0" stroke="black" stroke-width="3.09403" stroke-miterlimit="2"/>
<path d="M376.295 474.402L391.475 509.593L395.633 504.371L392.533 485.045L388.944 479.092L376.295 474.402Z" fill="#EEF5F0" stroke="black" stroke-width="3.09403" stroke-miterlimit="2"/>
<path d="M410.422 449.136L409.519 454.365L416.561 465.374L417.279 453.276L410.422 449.136Z" fill="#EEF5F0" stroke="black" stroke-width="3.09403" stroke-miterlimit="2"/>
<path d="M312.589 626.572L306.989 637.222L309.334 657.612L329.019 681.089L344.346 677.469L336.964 665.557L340.398 637.575L331.172 628.194L312.589 626.572Z" fill="#EEF5F0" stroke="black" stroke-width="3.09403" stroke-miterlimit="2"/>
<path d="M286.049 684.152L298.846 689.573L301.754 693.539L293.444 696.602L295.442 706.175L289.489 709.981L280.64 712.134L272.707 708.712L278.116 688.855L286.049 684.152Z" fill="#EEF5F0" stroke="black" stroke-width="3.09403" stroke-miterlimit="2"/>
<path d="M1264.43 533.968L1263.71 538.838L1268.75 544.438L1264.43 533.968Z" stroke="#3B4FA1" stroke-width="3.09403" stroke-miterlimit="2"/>
<path d="M1329.21 594.989L1333.55 597.328L1333.74 593.899L1329.21 594.989Z" fill="#EEF5F0" stroke="black" stroke-width="3.09403" stroke-miterlimit="2"/>
<path d="M1347.09 657.977L1344.73 662.847L1349.09 665.39L1351.41 659.245L1347.09 657.977Z" fill="#EEF5F0" stroke="black" stroke-width="3.09403" stroke-miterlimit="2"/>
<path d="M1380.68 668.633L1384.64 676.937L1388.61 673.682L1380.68 668.633Z" fill="#EEF5F0" stroke="black" stroke-width="3.09403" stroke-miterlimit="2"/>
<path d="M1334.45 741.552L1333.92 750.036L1342.06 749.684V741.552H1334.45Z" fill="#EEF5F0" stroke="black" stroke-width="3.09403" stroke-miterlimit="2"/>
<path d="M1306.48 1211.78L1308.28 1219.91L1311.35 1215.04L1306.48 1211.78Z" fill="#EEF5F0" stroke="black" stroke-width="3.09403" stroke-miterlimit="2"/>
<path d="M1289.69 1354.75L1291.85 1358.54L1292.75 1355.64L1289.69 1354.75Z" fill="#EEF5F0" stroke="black" stroke-width="3.09403" stroke-miterlimit="2"/>
<path d="M1302.32 1332.37L1306.29 1320.63L1311.35 1325.87V1321.17L1310.27 1314.13L1322.72 1324.44L1319.84 1330.39L1302.32 1332.37Z" fill="#EEF5F0" stroke="black" stroke-width="3.09403" stroke-miterlimit="2"/>
<path d="M1307.38 1307.82L1310.27 1314.13L1313.7 1310.53L1312.62 1306.56L1307.38 1307.82Z" fill="#EEF5F0" stroke="black" stroke-width="3.09403" stroke-miterlimit="2"/>
<path d="M1313.7 1292.12L1314.78 1296.61L1319.66 1297.71L1313.7 1292.12Z" fill="#EEF5F0" stroke="black" stroke-width="3.09403" stroke-miterlimit="2"/>
<path d="M1637.35 1956.39L1636.44 1960.91L1639.88 1957.29L1637.35 1956.39Z" fill="#EEF5F0" stroke="black" stroke-width="3.09403" stroke-miterlimit="2"/>
<path d="M1649.99 1961.09L1642.77 1971.37L1650.89 1969.94L1653.24 1961.44L1649.99 1961.09Z" fill="#EEF5F0" stroke="black" stroke-width="3.09403" stroke-miterlimit="2"/>
<path d="M1627.61 1985.81L1638.81 1975.17L1651.26 1972.64L1655.78 1962.7L1668.06 1961.44L1673.63 1967.23L1683.57 1961.27L1656.31 1995.74L1641.32 1992.49L1649.99 1991.23V1987.81L1657.57 1989.26L1653.96 1985.46L1649.09 1987.07L1639.34 1977.15L1631.21 1986.35L1627.61 1985.81Z" fill="#EEF5F0" stroke="black" stroke-width="3.09403" stroke-miterlimit="2"/>
<path d="M1501.08 2115.42L1511.53 2106.75L1515.87 2108.56L1511.9 2111.44L1501.08 2115.42Z" fill="#EEF5F0" stroke="black" stroke-width="3.09403" stroke-miterlimit="2"/>
<path d="M1440.96 2205.14L1448.72 2191.23V2243.4L1446.36 2248.65L1439.51 2249.18L1437 2229.33L1440.96 2205.14Z" fill="#EEF5F0" stroke="black" stroke-width="3.09403" stroke-miterlimit="2"/>
<path d="M1440.96 2250.99L1440.23 2253.33L1444.4 2253.87L1440.96 2250.99Z" fill="#EEF5F0" stroke="black" stroke-width="3.09403" stroke-miterlimit="2"/>
<path d="M1433.02 2260.01L1433.73 2264.17L1435.91 2260.92L1433.02 2260.01Z" fill="#EEF5F0" stroke="black" stroke-width="3.09403" stroke-miterlimit="2"/>
<path d="M2.09973 2436.2L50.2366 2402.26L88.751 2361.33L137.371 2248.7L186.937 2178.67L201.627 2148.34L228.582 2067.24L241.095 1993.83L238.935 1978.18L248.57 1940.16L249.541 1916.81L242.06 1782.03L230.03 1722.81L200.421 1655.91L205.241 1653.5L206.448 1659.04L215.841 1660.72L236.769 1647.24L237.741 1635.94L229.783 1637.37L221.12 1645.8L204.047 1642.67L204.752 1649.9L198.038 1651.1L164.561 1569.51L143.144 1488.16L125.83 1452.53L124.376 1429.91L129.673 1411.61L156.85 1375.52L168.187 1341.11L156.139 1266.22L162.865 1278.03L167.704 1278.26L170.322 1276.12L164.078 1273.7L163.608 1268.42L156.386 1264.09L134.233 1217.4L134.481 1209.44L162.401 1184.41L173.459 1169.98L230.748 1058.3L237.741 1019.79L239.411 987.051L247.586 982.001L239.17 982.713L247.116 953.351L248.57 931.946L235.798 893.191L236.769 873.463L274.318 853.971L289.231 855.641L301.02 845.53L307.27 805.834L305.846 761.775L318.123 753.118L327.034 762.487L342.43 761.292L356.885 727.122L370.604 728.087L380.951 742.283L386.966 743.236L408.376 735.29L415.585 722.301L415.35 703.539L428.11 681.392L440.628 674.653L452.905 660.934L454.335 647.463L466.606 626.034L475.764 611.108L488.759 613.757L503.443 597.631L510.671 612.804L499.359 626.034L499.124 637.828L493.833 627.958L488.53 628.435L478.406 642.166L483.697 662.624L495.72 678.731L495.962 686.448L487.8 682.586L482.744 698.236L466.853 720.847L470.702 728.087L483.926 718.217L482.744 750.222L475.294 753.341L466.853 771.651L465.189 794.751L472.144 816.657L469.025 831.106L478.165 835.19L486.104 834.466L491.643 808.235L511.636 767.555L506.339 764.182L500.324 769.238L498.635 764.906L510.9 748.068L515.485 723.743L531.357 716.058L534.482 731.701L526.537 733.378L523.666 786.082L501.042 809.658L499.124 826.292L493.573 835.673L497.664 841.446L509.217 844.819L520.299 833.259L521.017 815.444L536.667 802.201L562.403 744.207L572.044 652.265L565.788 631.331L562.403 585.849L568.189 567.551L594.896 539.624L607.662 541.319L614.63 529.76L632.934 517.007L656.987 510.75L692.872 517.007L703.695 511.474L711.145 512.669L739.567 498.95L738.824 490.045L733.769 484.754L714.536 481.623L715.242 486.438L690.452 475.367L672.402 453.214L664.45 426.506L663.021 402.441L678.912 375.727L704.889 361.526L710.192 348.048L728.701 330.957L730.167 325.907L722.457 314.354L702.488 306.167L732.574 305.932L742.927 312.188L750.625 306.885L766.497 312.188L773.985 309.298L778.793 311.941L788.638 303.525L784.319 294.379L786.249 291.489L806.936 290.524L811.268 300.629L873.606 331.433L907.789 361.284L921.984 363.45L925.846 360.084L918.371 355.505L924.404 352.138L939.8 358.153L960.245 354.31L999.49 367.54L1029.57 400.034L1035.6 426.995L1042.33 439.266L1056.77 444.798L1068.33 439.99L1112.13 444.798L1154.72 481.382L1167.24 480.175L1162.19 484.03L1167.95 486.679L1174.47 484.03L1180.24 487.403L1179.99 483.789L1189.87 482.824L1198.78 493.9L1222.33 508.343L1230.54 508.826L1234.15 514.599L1252.18 514.835L1256.3 510.026L1271.71 518.201L1273.16 509.544L1278.94 517.007L1275.31 520.379L1277.24 526.394L1283.5 524.222L1284.44 530.237L1288.78 530.484L1299.61 545.156L1315.27 555.509L1311.9 564.661L1302.02 560.564L1302.51 565.143L1305.39 567.068L1307.57 578.132L1319.1 594.264L1325.85 611.356L1334.26 622.42L1342.22 623.633L1341.01 636.634L1347.75 647.933L1339.58 652.5L1342.93 652.748L1344.38 669.127L1358.82 675.136L1363.64 683.799L1352.56 684.047L1331.63 675.613L1325.12 668.156L1324.17 659.245H1315.27L1297.46 670.309L1291.44 689.096L1300.83 695.365L1290.71 694.864L1289.04 704.022L1294.56 708.106L1299.85 731.701L1314.06 749.739L1330.18 759.609L1345.59 762.734L1343.66 777.431L1355.69 802.944L1354.49 832.77L1365.09 852.51L1350.4 910.282L1353.78 940.597L1344.62 1056.62L1332.1 1054.69L1315.03 1076.09L1304.91 1097.53L1299.61 1098.26L1305.88 1090.31L1297.46 1084.3L1281.81 1086.21L1273.85 1093.66L1264.72 1117.02L1259.42 1149.98L1261.59 1176.23L1251.24 1189.7L1257.26 1206.79L1245.95 1202.95L1224.04 1209.92L1219.72 1213.3L1220.69 1218.82L1215.85 1221.73L1218.99 1240.73L1196.13 1231.58L1192.51 1241.21L1181.44 1242.41L1175.18 1238.08L1171.09 1242.17L1169.9 1235.92L1159.06 1236.16L1152.8 1241.68L1148.72 1253.72L1144.14 1257.34L1138.11 1275.87L1131.39 1281.17L1130.44 1310.29L1135.72 1315.11L1128 1314.87L1126.57 1352.89L1124.17 1356.49L1123.91 1351.93L1121.27 1360.83L1119.35 1358.43L1120.78 1366.86L1116.94 1367.08L1120.78 1382.97L1139.56 1415.94L1167.24 1429.42L1195.89 1434.95L1224.78 1454.21L1270.73 1401.27L1281.32 1380.81L1284.44 1382.01L1286.14 1393.56L1294.81 1392.11L1301.78 1378.63V1372.63L1328.74 1329.54L1332.35 1319.19L1331.87 1312.7L1343.19 1307.16L1354.49 1292.96L1353.29 1284.28L1325.62 1279L1325.85 1277.32L1351.6 1274.92L1364.83 1270.82L1374.22 1260.46L1377.83 1242.17L1410.82 1237.36L1433.67 1226.05L1452.21 1227.01L1461.61 1216.92L1465.93 1203.67L1479.18 1200.53L1492.64 1190.67L1496.5 1193.56L1507.07 1189.46L1525.86 1201.97L1555.7 1211.38L1561.23 1220.76L1568.95 1221.49L1578.8 1231.34L1600.94 1278.76L1612.75 1295.36L1629.12 1342.07L1632.96 1403.43L1644.75 1468.4L1664.27 1522.33L1677.48 1643.62L1691.91 1700.19L1718.16 1751.93L1718.63 1769.03L1705.41 1788.53L1698.91 1812.83L1701.07 1834.02L1697.47 1854.46L1703.24 1883.59L1697.22 1893.46L1687.84 1953.39L1677.25 1965.19L1671.95 1960.13L1635.85 1953.62L1644.75 1943.28L1645.71 1933.17L1633.7 1934.39L1619.48 1922.59L1596.85 1932.93L1593.02 1940.64L1576.88 1944.71L1570.37 1955.32L1570.62 1963.74L1588.19 1976.01L1584.11 1978.9L1584.33 1991.19L1579.27 1988.54L1564.6 1991.88L1549.21 2016.69L1548 2042.7L1553.04 2052.3L1544.38 2087.21L1531.15 2103.34L1508.05 2106.96L1490 2120.66L1473.64 2128.83L1459.18 2150.27L1461.13 2154.12L1455.09 2164.69L1447.14 2169.28L1450.28 2180.12L1433.67 2233.78L1435.35 2251.1L1433.43 2254.23L1429.81 2253.04L1434.88 2272.04L1433.67 2281.68L1427.41 2280.24L1427.67 2299L1412.98 2311.77L1405.76 2309.36L1412.01 2315.63L1410.09 2328.85L1406.73 2332.7L1393.73 2328.6L1387.23 2332.95L1381.68 2341.61L1378.55 2360.64L1376.15 2357.5L1368.7 2356.54L1371.09 2364.47L1360.98 2370.48L1349.44 2393.35L1339.1 2400.81L1346.06 2440.54H1342.7L1335.47 2411.66L1331.39 2415.74L1336.68 2427.77L1326.58 2428.99L1329.23 2436.43L1322.46 2443.17L800.21 2471.81L799.003 2437.89L2.09973 2436.2Z" fill="#EEF5F0" stroke="black" stroke-width="3.09403" stroke-miterlimit="2"/>
<path d="M393.628 332.887L390.943 342.269L394.884 339.379L393.628 332.887Z" fill="#EEF5F0" stroke="black" stroke-width="3.09403" stroke-miterlimit="2"/>
<path d="M900.386 402.194L908.573 388.481" stroke="#3B4FA1" stroke-width="3.09403" stroke-miterlimit="2"/>
<path d="M1111 1564.69L1116.05 1550.5L1142.99 1496.35L1142.74 1485.26L1136.01 1478.3L1134.33 1462.64L1140.35 1445.79L1157.21 1439.77L1155.5 1424.86" stroke="#3B4FA1" stroke-width="3.09403" stroke-miterlimit="2"/>
<path d="M966.58 2183.96L979.81 2182.51L986.79 2190.35" stroke="#3B4FA1" stroke-width="3.09403" stroke-miterlimit="2"/>
<path d="M250.851 1630.93L235.641 1635.94" stroke="#3B4FA1" stroke-width="3.09403" stroke-miterlimit="2"/>
<path d="M806.773 396.903L810.622 389.681L816.625 390.641L826.006 399.545L832.287 396.662L836.358 399.069L827.695 410.38L823.865 406.284L808.19 405.566L806.773 396.903Z" fill="#ACE1FA" stroke="#3B4FA1" stroke-width="3.09403" stroke-miterlimit="2"/>
<path d="M817.831 437.101L821.674 424.341L832.516 421.934L835.9 432.763L842.862 434.452L842.392 458.276L845.758 462.849L839.972 476.803L846.723 489.804L845.517 493.418L833.704 495.101L819.774 471.271L808.19 462.849L807.256 457.8L816.396 456.593L815.653 451.296L822.652 456.11L827.943 453.214L817.831 437.101Z" fill="#ACE1FA" stroke="#3B4FA1" stroke-width="3.09403" stroke-miterlimit="2"/>
<path d="M860.671 455.392L889.792 401.952L900.386 402.193L904.959 409.904L906.389 429.631L901.605 438.295L887.874 440.702L882.336 449.136L873.202 453.944L877.521 467.422L863.796 469.105L861.878 474.161L858.276 471.029L862.596 465.491L860.671 455.392Z" fill="#ACE1FA" stroke="#3B4FA1" stroke-width="3.09403" stroke-miterlimit="2"/>
<path d="M686.187 524.457L699.677 541.555L702.789 549.977L700.147 557.674L703.513 560.082L717.22 563.207L716.756 546.61L721.551 553.108L720.599 564.661L730.951 571.393L718.191 574.289L714.565 566.338L703.996 567.062L695.797 555.502L700.63 553.108L686.187 524.457Z" fill="#ACE1FA" stroke="#3B4FA1" stroke-width="3.09403" stroke-miterlimit="2"/>
<path d="M616.138 540.107L621.2 537.217L627.685 538.9L640.946 556.709L658.272 562.965L676.323 561.047L685.209 581.022L683.78 585.601L700.63 592.092L696.521 599.555L676.323 590.651L673.427 581.498L664.04 573.559L642.14 568.504L652.728 601.238L650.556 613.992L658.031 628.429L645.989 615.44L647.437 601.715L636.125 569.228L624.808 555.032L618.298 557.916L615.191 552.625L616.138 540.107Z" fill="#ACE1FA" stroke="#3B4FA1" stroke-width="3.09403" stroke-miterlimit="2"/>
<path d="M577.871 655.149L586.058 668.632L585.829 683.069L594.474 693.187L602.66 727.84L600.742 741.076L597.357 747.332L603.378 768.514L601.689 780.061L586.058 786.323L585.829 723.985L588.923 719.183L574.517 670.309L577.871 655.149Z" fill="#ACE1FA" stroke="#3B4FA1" stroke-width="3.09403" stroke-miterlimit="2"/>
<path d="M561.999 769.485L568.496 749.021L575.724 759.863L576.658 766.107L567.277 778.619L570.656 797.387L575.006 800.766L573.317 814.955L565.848 817.133L560.068 780.296L555.254 773.582V766.812L561.999 769.485Z" fill="#ACE1FA" stroke="#3B4FA1" stroke-width="3.09403" stroke-miterlimit="2"/>
<path d="M575.953 801.242L576.658 808.705L587.524 820.5L598.087 818.816L578.36 798.124L575.953 801.242Z" fill="#ACE1FA" stroke="#3B4FA1" stroke-width="3.09403" stroke-miterlimit="2"/>
<path d="M823.617 717.252L827.466 718.706V732.419L825.3 748.068L821.185 749.498L823.617 717.252Z" fill="#ACE1FA" stroke="#3B4FA1" stroke-width="3.09403" stroke-miterlimit="2"/>
<path d="M1042.15 645.532L1055.15 628.2L1047.69 644.091L1042.15 645.532Z" stroke="#3B4FA1" stroke-width="3.09403" stroke-miterlimit="2"/>
<path d="M1122.54 699.919L1129.05 697.989L1136.25 710.037H1141.07L1162.01 691.974L1165.38 694.629L1154.07 703.298L1142.51 722.809L1132.17 724.226L1124.7 730.983L1122.54 699.919Z" fill="#ACE1FA" stroke="#3B4FA1" stroke-width="3.09403" stroke-miterlimit="2"/>
<path d="M1240.48 662.63L1244.57 640.953L1240.48 635.663L1265.03 643.361L1278.73 658.769L1255.39 645.05L1245.54 651.306L1240.48 662.63Z" fill="#ACE1FA" stroke="#3B4FA1" stroke-width="3.09403" stroke-miterlimit="2"/>
<path d="M1251.06 581.263L1252.02 576.697L1276.58 577.891L1274.17 581.022L1287.89 591.139L1290.3 598.831L1297.99 601.48V610.626L1293.66 612.562L1270.32 583.67L1251.06 581.263Z" fill="#ACE1FA" stroke="#3B4FA1" stroke-width="3.09403" stroke-miterlimit="2"/>
<path d="M1245.04 526.4L1249.14 524.952L1257.79 535.781L1253.71 525.429L1261.16 531.214L1261.9 528.801L1276.09 537.706L1280.18 557.198L1285.46 556.715L1293.4 564.667L1279.71 565.62L1269.6 547.093L1246.97 536.258L1245.04 526.4Z" fill="#ACE1FA" stroke="#3B4FA1" stroke-width="3.09403" stroke-miterlimit="2"/>
<path d="M796.656 991.141L798.822 971.166L805.319 968.512L824.094 976.469L826.971 991.141L834.694 995.232V1009.92L829.131 1015.45L824.576 1014.01L820.01 991.141H796.656Z" fill="#ACE1FA" stroke="#3B4FA1" stroke-width="3.09403" stroke-miterlimit="2"/>
<path d="M763.94 1050.35L770.666 1030.37L774.28 1027.26L776.198 1036.64L763.94 1050.35Z" stroke="#3B4FA1" stroke-width="3.09403" stroke-miterlimit="2"/>
<path d="M786.786 1042.89L790.622 1030.14L802.2 1029.67L803.859 1038.8L796.427 1043.86L822.652 1042.4L831.092 1049.64L832.528 1058.54L848.642 1067.43L846.723 1078.04L843.351 1080.92L836.136 1075.62L819.279 1081.63L806.291 1079.49L789.205 1057.32L786.786 1042.89Z" fill="#ACE1FA" stroke="#3B4FA1" stroke-width="3.09403" stroke-miterlimit="2"/>
<path d="M900.64 1044.11L904.483 1040.49L907.379 1042.89H917.236L916.747 1045.53L925.182 1037.12L930.225 1040.24L921.555 1049.41L912.905 1046.73L905.448 1050.84L900.64 1044.11Z" fill="#ACE1FA" stroke="#3B4FA1" stroke-width="3.09403" stroke-miterlimit="2"/>
<path d="M1105.2 1048.2L1114.11 1046.49L1119.41 1054.44L1105.2 1048.2Z" fill="#ACE1FA" stroke="#3B4FA1" stroke-width="3.09403" stroke-miterlimit="2"/>
<path d="M1277.05 1069.36L1277.29 1077.31L1293.9 1064.06L1284.51 1059.02L1277.05 1069.36Z" fill="#ACE1FA" stroke="#3B4FA1" stroke-width="3.09403" stroke-miterlimit="2"/>
<path d="M1277.54 989.483L1290.3 998.128H1296.31L1299.92 1000.78L1301.84 999.316L1285.96 989.941L1277.54 989.483Z" stroke="#3B4FA1" stroke-width="3.09403" stroke-miterlimit="2"/>
<path d="M1214.48 998.598L1232.05 1001.75L1237.57 991.141L1251.06 982.002L1248.88 977.905L1244.07 978.159L1234.21 993.567L1214.48 998.598Z" fill="#ACE1FA" stroke="#3B4FA1" stroke-width="3.09403" stroke-miterlimit="2"/>
<path d="M1174.29 984.415L1182.23 994.99L1194.5 990.912L1194.73 983.196L1183.42 987.521L1174.29 984.415Z" fill="#ACE1FA" stroke="#3B4FA1" stroke-width="3.09403" stroke-miterlimit="2"/>
<path d="M1154.07 924.484L1152.86 932.664L1163.95 936.278L1162.25 928.333L1160.56 927.856L1157.68 931.476L1156.95 925.925L1154.07 924.484Z" fill="#ACE1FA" stroke="#3B4FA1" stroke-width="3.09403" stroke-miterlimit="2"/>
<path d="M1026.74 889.348L1035.16 887.151L1028.67 886.211L1026.74 882.126L1011.1 878.748L1012.8 883.079L1023.86 884.769L1026.74 889.348Z" fill="#ACE1FA" stroke="#3B4FA1" stroke-width="3.09403" stroke-miterlimit="2"/>
<path d="M431.728 681.98L435.868 685.965L428.461 704.022L442.73 723.681L437.507 750.222L446.895 773.508L434.42 799.139L421.982 794.609L435.156 782.715L439.314 770.457L434.97 755.265L439.488 721.887L429.191 712.494L420.187 712.135L420.54 702.388L427.05 700.94L425.763 693.719L429.909 687.228L431.728 681.98Z" fill="#ACE1FA" stroke="#3B4FA1" stroke-width="3.09403" stroke-miterlimit="2"/>
<path d="M316.376 780.543L339.476 792.814H348.876L356.642 785.048L352.106 766.812L339.111 771.156L332.967 784.145L319.638 772.963L316.376 780.543Z" fill="#ACE1FA" stroke="#3B4FA1" stroke-width="3.09403" stroke-miterlimit="2"/>
<path d="M238.933 886.501L245.418 873.494L262.404 877.671L297.237 903.104L292.367 908.172L279.725 900.227L268.351 903.29L260.424 891.019L238.933 886.501Z" fill="#ACE1FA" stroke="#3B4FA1" stroke-width="3.09403" stroke-miterlimit="2"/>
<path d="M416.369 850.406L419.618 846.075L434.42 859.441L433.522 865.4L428.102 863.754L427.05 867.362L432.452 870.443L424.859 877.312L420.36 873.154L423.782 871.174L420.886 853.29L416.369 850.406Z" fill="#ACE1FA" stroke="#3B4FA1" stroke-width="3.09403" stroke-miterlimit="2"/>
<path d="M409.327 911.6L417.638 907.448L420.713 915.022L415.843 918.283L416.369 925.331L409.166 928.395L409.327 911.6Z" fill="#ACE1FA" stroke="#3B4FA1" stroke-width="3.09403" stroke-miterlimit="2"/>
<path d="M264.199 1006L266.185 1017.75L280.808 1012.87L277.577 1004.74L274.316 1007.99L264.199 1006Z" fill="#ACE1FA" stroke="#3B4FA1" stroke-width="3.09403" stroke-miterlimit="2"/>
<path d="M210.963 1108.53L216.019 1122.27L225.585 1131.28L218.005 1121.18L217.108 1107.63L216.371 1102.95L212.046 1102.76L210.963 1108.53Z" fill="#ACE1FA" stroke="#3B4FA1" stroke-width="3.09403" stroke-miterlimit="2"/>
<path d="M354.848 1102.95L362.05 1110.51H371.976L375.943 1101.32L383.523 1095.53L371.976 1100.04L368.536 1108.53L354.848 1102.95Z" fill="#ACE1FA" stroke="#3B4FA1" stroke-width="3.09403" stroke-miterlimit="2"/>
<path d="M516.919 1117.37L521.814 1104.03L527.222 1100.78L533.726 1111.96L533.534 1118.27L516.919 1117.37Z" fill="#ACE1FA" stroke="#3B4FA1" stroke-width="3.09403" stroke-miterlimit="2"/>
<path d="M944.915 1322.45L947.44 1343.38L949.618 1338.87L964.76 1330.39L973.424 1313.06V1305.11L979.568 1294.29L977.403 1271.18L976.505 1295.01L969.996 1305.85V1317.75L956.648 1331.63L954.296 1327.13L950.336 1336.35L944.915 1322.45Z" fill="#ACE1FA" stroke="#3B4FA1" stroke-width="3.09403" stroke-miterlimit="2"/>
<path d="M940.751 1365.23L951.592 1391.22L952.31 1404.92L954.668 1408.73L951.054 1412.15L939.495 1366.66L940.751 1365.23Z" fill="#ACE1FA" stroke="#3B4FA1" stroke-width="3.09403" stroke-miterlimit="2"/>
<path d="M703.575 1426.96L704.844 1439.78L712.436 1436.89L715.302 1425.51L707.189 1436.35L703.575 1426.96Z" fill="#ACE1FA" stroke="#3B4FA1" stroke-width="3.09403" stroke-miterlimit="2"/>
<path d="M592.196 1371.18L595.458 1379.11L602.301 1370.28L596.175 1366.66L592.196 1371.18Z" fill="#ACE1FA" stroke="#3B4FA1" stroke-width="3.09403" stroke-miterlimit="2"/>
<path d="M622.877 1384.9L632.815 1392.11L640.76 1392.29L640.036 1397.52L619.257 1395.19L622.877 1384.9Z" fill="#ACE1FA" stroke="#3B4FA1" stroke-width="3.09403" stroke-miterlimit="2"/>
<path d="M537.141 1434.35L534.802 1445.36L530.099 1448.62L529.728 1452.95L514.041 1449.7L518.187 1446.27L528.484 1449.87L535.687 1434.73L537.141 1434.35Z" stroke="#3B4FA1" stroke-width="3.09403" stroke-miterlimit="2"/>
<path d="M510.607 1460.72L514.753 1470.63L503.751 1476.59L494.357 1488.34L496.164 1505.11L489.654 1507.11L480.112 1503.49L480.644 1510.34L473.974 1516.3L469.091 1515.94L473.064 1501.7L479.927 1498.98L490.397 1503.49L489.654 1490.49L494.902 1482.72L511.331 1468.65L510.607 1460.72Z" fill="#ACE1FA" stroke="#3B4FA1" stroke-width="3.09403" stroke-miterlimit="2"/>
<path d="M467.291 1528.22L468.732 1532.37L460.973 1534.18L460.23 1537.8L468.918 1540.66L457.544 1542.84L456.27 1534.18L460.063 1531.12L465.663 1531.48L467.291 1528.22Z" fill="#ACE1FA" stroke="#3B4FA1" stroke-width="3.09403" stroke-miterlimit="2"/>
<path d="M957.91 1202.36L966.103 1200.42L964.284 1219.91L960.571 1218.82L957.91 1202.36Z" fill="#ACE1FA" stroke="#3B4FA1" stroke-width="3.09403" stroke-miterlimit="2"/>
<path d="M249.595 1897.55L256.823 1887.45L266.377 1892.31L269.273 1886.35L270.529 1890.67L281.179 1887.07L269.607 1895.56L249.595 1897.55Z" fill="#ACE1FA" stroke="#3B4FA1" stroke-width="3.09403" stroke-miterlimit="2"/>
<path d="M345.986 2011.08L349.761 2019.39L354.464 2014.89L359.513 2018.85L376.648 2021.55L377.199 2024.09L381.914 2021.92L345.986 2011.08Z" fill="#ACE1FA" stroke="#3B4FA1" stroke-width="3.09403" stroke-miterlimit="2"/>
<path d="M547.97 2085.82L559.876 2108.2L566.033 2107.3L567.104 2101.88L562.234 2097.19L554.833 2085.46L547.97 2085.82Z" fill="#ACE1FA" stroke="#3B4FA1" stroke-width="3.09403" stroke-miterlimit="2"/>
<path d="M509.537 1980.57L505.533 1993.59L519.827 1998.09V1988.7L524.146 1983.3L516.56 1986.16L509.537 1980.57Z" fill="#ACE1FA" stroke="#3B4FA1" stroke-width="3.09403" stroke-miterlimit="2"/>
<path d="M989.141 2252.25L990.23 2261.83L998.337 2255.51L996.542 2245.75L989.141 2252.25Z" fill="#ACE1FA" stroke="#3B4FA1" stroke-width="3.09403" stroke-miterlimit="2"/>
<path d="M986.79 2190.35L984.092 2199.01L998.337 2198.28L986.79 2190.35Z" fill="#ACE1FA" stroke="#3B4FA1" stroke-width="3.09403" stroke-miterlimit="2"/>
<path d="M747.616 1808.9L753.575 1814.33L756.279 1809.82L749.59 1806.04L747.616 1808.9Z" stroke="#3B4FA1" stroke-width="3.09403" stroke-miterlimit="2"/>
<path d="M1234.09 2024.81L1240.04 2014.89L1248.72 2012.71L1241.86 2026.07L1234.09 2024.81Z" fill="#ACE1FA" stroke="#3B4FA1" stroke-width="3.09403" stroke-miterlimit="2"/>
<path d="M1164.97 2063.62L1170.75 2066.68L1170.02 2061.46L1164.97 2063.62Z" stroke="#3B4FA1" stroke-width="3.09403" stroke-miterlimit="2"/>
<path d="M1138.24 2079.86L1144.37 2080.94L1144.91 2068.49L1138.24 2079.86Z" fill="#ACE1FA" stroke="#3B4FA1" stroke-width="3.09403" stroke-miterlimit="2"/>
<path d="M1263.71 2179.33L1264.97 2186.73L1284.46 2189.98L1263.71 2179.33Z" fill="#ACE1FA" stroke="#3B4FA1" stroke-width="3.09403" stroke-miterlimit="2"/>
<path d="M1289.69 2188.18L1292.41 2193.58L1293.85 2189.23L1308.46 2192.32L1310.8 2188.54L1329.21 2184.93L1306.48 2184.56L1307.55 2188.54L1303.78 2189.79L1297.99 2185.47L1289.69 2188.18Z" fill="#ACE1FA" stroke="#3B4FA1" stroke-width="3.09403" stroke-miterlimit="2"/>
<path d="M992.396 2318.87L996.542 2323.55L1003.58 2319.22L1001.76 2307.3L998.337 2318.5L992.396 2318.87Z" fill="#ACE1FA" stroke="#3B4FA1" stroke-width="3.09403" stroke-miterlimit="2"/>
<path d="M247.553 1728.6L248.63 1731.58L259.112 1729.78L259.941 1716.68L264.137 1712.71L256.934 1715.96L255.604 1728.96L247.553 1728.6Z" stroke="#3B4FA1" stroke-width="3.09403" stroke-miterlimit="2"/>
<path d="M236.978 1739.67L238.877 1734.49L248.042 1736.78L259.589 1745.07L266.433 1750.73L273.648 1759.75L267.051 1760.6L265.969 1751.93L256.934 1747.36L247.442 1739.06L236.978 1739.67Z" stroke="#3B4FA1" stroke-width="3.09403" stroke-miterlimit="2"/>
<path d="M180.815 2352.52L197.337 2341.7L193.086 2350.09L181.892 2356.12L180.815 2352.52Z" fill="#ACE1FA" stroke="#3B4FA1" stroke-width="3.09403" stroke-miterlimit="2"/>
<path d="M643.644 2284.74L657.004 2276.44L651.039 2284.2L643.644 2284.74Z" stroke="#3B4FA1" stroke-width="3.09403" stroke-miterlimit="2"/>
<path d="M1432.83 1848.98L1434.65 1857.12L1437.17 1854.94L1432.83 1848.98Z" fill="#ACE1FA" stroke="#3B4FA1" stroke-width="3.09403" stroke-miterlimit="2"/>
<path d="M1464.07 1897.74L1466.05 1906.03L1459.37 1913.79L1464.07 1897.74Z" fill="#ACE1FA" stroke="#3B4FA1" stroke-width="3.09403" stroke-miterlimit="2"/>
<path d="M1298.36 1700.6L1310.09 1706.75L1318.02 1704.59L1336.8 1672.45L1328.49 1677.68L1315.69 1702.23L1298.36 1700.6Z" fill="#ACE1FA" stroke="#3B4FA1" stroke-width="3.09403" stroke-miterlimit="2"/>
<path d="M1235.17 777.889L1236.38 799.33L1246.25 807.498L1249.86 827.474L1255.63 828.928L1265.75 808.47L1262.38 791.849L1252.02 797.616L1243.6 790.902L1241.91 780.296L1235.17 777.889Z" fill="#ACE1FA" stroke="#3B4FA1" stroke-width="3.09403" stroke-miterlimit="2"/>
<path d="M958.381 449.365L961.53 439.743L971.388 438.06L997.39 463.084L995.472 471.747L981.963 477.292L974.278 475.367L966.103 458.517L958.381 449.365Z" fill="#ACE1FA" stroke="#3B4FA1" stroke-width="3.09403" stroke-miterlimit="2"/>
<path d="M747.616 1808.9L755.258 1814.99L756.279 1809.82L749.59 1806.04L747.616 1808.9Z" fill="#ACE1FA" stroke="#3B4FA1" stroke-width="3.09403" stroke-miterlimit="2"/>
<path d="M432.266 1024.95L433.343 1028.56L420.36 1038.31L418.721 1044.46L396.716 1051.48L393.814 1046.98L416.914 1039.04L432.266 1024.95Z" fill="#ACE1FA" stroke="#3B4FA1" stroke-width="3.09403" stroke-miterlimit="2"/>
</svg>
